<svg aria-hidden="true" style="position: absolute; width: 0; height: 0; overflow: hidden;" version="1.1"
    xmlns="http://www.w3.org/2000/svg" xmlns:xlink="http://www.w3.org/1999/xlink">
    <defs>
        <symbol id="paw" viewBox="0 0 23 32">
            <path
                d="M5.456 14.756c0.864 1.917 0.6 3.905-0.59 4.442s-2.855-0.582-3.719-2.499c-0.864-1.917-0.6-3.905 0.59-4.442s2.855 0.582 3.719 2.498z">
            </path>
            <path
                d="M17.217 14.756c-0.864 1.917-0.6 3.905 0.59 4.442s2.855-0.582 3.719-2.499c0.864-1.917 0.6-3.905-0.59-4.442s-2.855 0.582-3.719 2.498z">
            </path>
            <path
                d="M10.514 10.914c0.443 2.055-0.232 3.944-1.508 4.219s-2.669-1.168-3.112-3.223c-0.443-2.055 0.232-3.944 1.508-4.219s2.669 1.168 3.112 3.223z">
            </path>
            <path
                d="M12.128 10.915c-0.443 2.055 0.232 3.944 1.508 4.219s2.669-1.168 3.112-3.223c0.443-2.055-0.232-3.944-1.508-4.219s-2.669 1.168-3.112 3.223z">
            </path>
            <path
                d="M8.917 17.784c-0.311 0.538-1.754 2.318-2.752 2.926s-2.235 1.497-2.027 3.539c0.207 2.043 2.302 2.917 3.682 2.839s3.98-0.331 5.836-0.074c1.856 0.257 4.2 0.062 4.748-1.893s-0.678-3.202-1.636-3.909c-0.958-0.707-2.557-2.82-3.049-3.791s-3-2.747-4.801 0.362z">
            </path>
        </symbol>
    </defs>
</svg>